<?xml version="1.0" encoding="UTF-8"?>
<!DOCTYPE svg PUBLIC "-//W3C//DTD SVG 1.1//EN" "http://www.w3.org/Graphics/SVG/1.1/DTD/svg11.dtd">
<!-- Creator: CorelDRAW 2020 (64 Bit) -->
<svg xmlns="http://www.w3.org/2000/svg" xml:space="preserve" width="1401px" height="1334px" version="1.1" style="shape-rendering:geometricPrecision; text-rendering:geometricPrecision; image-rendering:optimizeQuality; fill-rule:evenodd; clip-rule:evenodd"
viewBox="0 0 251.35 239.42"
 xmlns:xlink="http://www.w3.org/1999/xlink"
 xmlns:xodm="http://www.corel.com/coreldraw/odm/2003">
 <defs>
  <style type="text/css">
   <![CDATA[
    .fil0 {fill:black}
    .fil1 {fill:black;fill-rule:nonzero}
   ]]>
  </style>
 </defs>
 <g id="Camada_x0020_1">
  <metadata id="CorelCorpID_0Corel-Layer"/>
  <path class="fil0" d="M83.29 119.7c0.65,0.49 6.97,4.94 4.85,5.53 -1.35,0.37 -5.81,-1.84 -7.25,-2.42l-3.46 -1.66c-0.65,-0.33 -1.05,-0.6 -1.69,-0.92 -4.67,-2.37 -6.13,-3.39 -10.73,-6.38 -2.28,-1.47 -5.6,-3.88 -7.6,-5.71 -0.84,-0.76 -1.06,-1.08 -1.7,-2.38 2.04,-0.8 8.98,2.75 11.23,3.9 5.83,3.29 10.75,6.1 16.35,10.04zm-16.74 -1.03c-2.71,-1.57 -5.23,-3.42 -7.69,-5.46 -1.93,-1.61 -10.31,-8.34 -6.44,-10.6 3.39,-1.98 11.64,1.87 14.79,3.33 4.68,2.16 10.22,5.62 14.69,8.49 3.72,2.38 10.32,8.64 11.41,9.3 0.58,0.35 1.12,0.64 1.68,0.96 1.13,0.66 2.13,1.32 3.33,2.01 2.38,1.37 4.44,2.73 6.81,4.1l22.35 13.56c7.19,4.14 18.79,11.49 25.47,15.72 2.31,1.47 4.45,2.81 6.76,4.23l10.17 6.53c2.57,1.67 15.18,9.68 16.57,11.37 -1.65,-0.22 -9.1,-4.17 -10.96,-5.21 -1.23,-0.69 -2.32,-1.19 -3.57,-1.83 -4.75,-2.41 -9.56,-4.86 -14.18,-7.54l-17.76 -9.82c-13.04,-7.07 -25.93,-14.42 -38.77,-21.88l-10.53 -5.97c-1.45,-0.86 -2.15,-1.02 -3.67,-1.54l-5.65 -2.1c-0.8,-0.28 -0.99,-0.4 -1.75,-0.74 -1.29,-0.57 -2.35,-1.03 -3.63,-1.65 -3.82,-1.85 -6.1,-3.31 -9.43,-5.26z"/>
  <path class="fil1" d="M59.64 170.77c17.81,0 35.75,-3.45 47.35,-11.74 53.56,-38.1 53.29,-118.44 92.9,-151.71 1.8,-1.52 4.56,-2.9 4.56,-4.56 -0.41,-2.76 -1.66,-2.76 -5.11,-2.76 -35.89,0 -84.35,12.84 -97.6,55.22 -1.79,5.66 -2.48,10.91 -2.48,15.6 0,15.6 8.14,26.78 20.7,26.78 3.18,0 6.63,-0.83 9.53,-2.76l0.28 -0.55c0,-0.28 -0.14,-0.55 -0.56,-0.55 -15.04,-1.25 -23.19,-13.12 -23.19,-27.89 0,-26.37 25.68,-61.57 84.07,-61.57l5.25 0c1.52,0 2.07,0.55 2.07,1.1 0,0.28 -0.14,0.56 -0.41,0.83 -41.69,37.83 -50.67,119.55 -91.25,148.82 -8.7,6.35 -22.09,8.84 -36.17,8.84 -30.51,0 -64.89,-11.74 -64.89,-22.92 0,-3.18 2.76,-6.35 9.11,-9.25 0.28,-0.14 0.42,-0.28 0.42,-0.42 -0.14,-0.41 -0.14,-0.55 -0.42,-0.55 -5.93,1.25 -13.25,4.97 -13.8,15.6 0,14.5 29.82,24.44 59.64,24.44z"/>
  <path class="fil1" d="M163.82 239.42c10.87,0 19.96,-1.79 25.31,-6.6 0.53,-0.54 0.89,-1.25 0.89,-1.96 0,-11.05 -62.04,-39.22 -69.17,-44.04 -0.36,-0.17 -0.36,-0.35 -0.36,-0.53 0,-0.54 0.9,-0.89 1.97,-1.25 25.85,-4.63 68.1,-11.23 98.05,-31.02 10.34,-6.77 30.84,-22.46 30.84,-39.93 0,-4.28 -1.25,-8.74 -4.28,-13.01 -10.7,-15.87 -35.12,-17.3 -55.8,-18.37 -0.89,0 -1.07,-0.18 -1.07,-0.53 0,-0.36 0.18,-0.71 0.36,-0.89 3.92,-5.35 4.99,-6.06 8.02,-9.63 0.35,-0.18 0.35,-0.54 0.35,-0.71 0,-0.54 -1.06,-1.07 -2.67,-1.07 -4.46,0 -4.63,1.96 -12.3,11.05 -0.89,1.25 -1.43,1.43 -2.14,1.43l-6.06 0c-21.21,0 -42.79,2.67 -62.4,8.02 -47.24,12.66 -61.14,36.72 -61.14,56.87 0,18.54 11.76,33.87 20.14,33.87 8.74,-1.07 12.84,-7.49 13.37,-8.2l0.18 -0.71c0,-0.54 -0.36,-0.9 -1.07,-0.9l-3.03 0.18c-13.01,0 -22.46,-11.76 -23,-28.16 0,-24.43 22.82,-39.4 49.92,-48.14 18.54,-6.06 40.11,-9.8 57.76,-9.8 4.28,0 8.38,0.35 11.94,0.71 0.54,0.18 1.07,0.18 1.07,0.54l-0.53 0.89c-24.6,30.12 -44.03,65.78 -62.4,91.63 -1.07,1.43 -1.25,1.25 -2.31,1.43 -3.75,0.53 -4.82,0.17 -6.78,0.53 -0.35,0 -0.89,0.53 -0.89,1.07 0,0.89 2.85,2.67 4.28,4.1 0.18,0.18 0.53,0.36 0.53,0.53 0,0.36 -0.18,0.54 -0.53,1.25 -8.74,12.3 -18.36,26.21 -31.02,34.59 -2.68,1.78 -11.95,0.35 -16.22,2.14 -4.28,1.42 -9.27,4.63 -9.27,7.48 0.35,1.97 1.24,2.86 4.27,2.86 5.35,0 14.44,-3.93 19.44,-6.42 2.14,-1.07 3.56,-1.43 5.17,-1.43l1.07 0c18.54,2.14 54.01,12.13 79.51,12.13zm-5.35 -4.64c-19.97,0 -52.06,-7.66 -70.06,-9.98 -0.9,-0.18 -1.07,-0.54 -1.07,-0.72 0,-0.53 0.71,-0.89 1.24,-1.42 11.59,-7.85 20.51,-17.65 27.99,-30.84 0.54,-0.89 1.07,-1.43 1.79,-1.43 0.17,0 0.35,0 0.53,0.18 4.64,3.21 55.27,31.91 55.27,39.58 0,0.35 0,0.71 -0.36,1.06 -2.68,2.5 -8.2,3.57 -15.33,3.57zm-32.45 -54.91l-0.53 0c-0.18,0 -0.54,0 -0.54,-0.36l0.36 -0.53c18.18,-27.28 42.25,-67.92 60.43,-91.27 0.54,-0.72 0.72,-1.61 2.32,-1.61l1.07 0.18c24.78,0.89 42.43,5.35 48.49,14.8 2.14,3.38 3.39,7.3 3.39,11.4 0,10.17 -7.31,21.75 -25.14,33.52 -27.1,17.83 -68.28,29.24 -89.85,33.87z"/>
 </g>
</svg>
